<svg width="30" height="30" viewBox="0 0 30 30" fill="none" xmlns="http://www.w3.org/2000/svg">
<g id="heroicons-solid/academic-cap">
<g id="Union">
<path d="M14.6249 3.50811C14.8642 3.40355 15.1362 3.40355 15.3756 3.50811C20.0241 5.53913 24.4297 8.02196 28.537 10.9009C28.8343 11.1093 28.9845 11.4705 28.9228 11.8282C28.861 12.1859 28.5983 12.4758 28.2484 12.5723C27.3922 12.8087 26.5435 13.0632 25.7024 13.3344C22.2886 14.4354 19.0023 15.8207 15.8716 17.4625L15.8675 17.4646C15.7255 17.5391 15.5839 17.614 15.4426 17.6895C15.1665 17.837 14.835 17.837 14.559 17.6895C14.4163 17.6133 14.2733 17.5376 14.13 17.4625C12.5819 16.6507 10.9958 15.9016 9.37512 15.2185V14.9389C9.37512 14.7747 9.4594 14.6291 9.58979 14.5501C11.4712 13.4102 13.4118 12.3586 15.406 11.4007C15.8728 11.1765 16.0694 10.6164 15.8452 10.1497C15.621 9.683 15.0609 9.48638 14.5942 9.71055C12.5451 10.6948 10.5512 11.7754 8.61824 12.9464C8.05151 13.2897 7.67053 13.8517 7.54521 14.4812C6.47656 14.0701 5.39386 13.6872 4.29799 13.3338C3.45695 13.0626 2.60817 12.8086 1.75205 12.5723C1.40215 12.4757 1.13945 12.1859 1.07767 11.8282C1.0159 11.4705 1.16615 11.1093 1.46339 10.9009C5.57069 8.02194 9.97634 5.53913 14.6249 3.50811Z" fill="#0D0D0D"/>
<path d="M16.3262 19.3433C19.3748 17.7144 22.5777 16.3373 25.9074 15.2397C26.0752 17.0083 26.1823 18.7943 26.2267 20.5959C26.2362 20.9824 26.0075 21.3351 25.6507 21.4841C22.0868 22.972 18.6968 24.794 15.52 26.9111C15.2052 27.1209 14.7951 27.1209 14.4803 26.9111C11.3035 24.794 7.91353 22.972 4.34962 21.4841C3.99282 21.3351 3.76407 20.9824 3.7736 20.5959C3.81798 18.7942 3.92513 17.008 4.09296 15.2393C5.24421 15.6188 6.38031 16.0317 7.50012 16.4768V18.0648C6.93968 18.389 6.56262 18.995 6.56262 19.689C6.56262 20.3081 6.86272 20.8572 7.3254 21.1986C7.2135 21.6744 7.0479 22.14 6.82858 22.5858C7.39445 22.8529 7.95548 23.1286 8.5115 23.4127C8.82816 22.7686 9.05777 22.0926 9.2003 21.4024C9.85574 21.1102 10.3126 20.4529 10.3126 19.689C10.3126 18.995 9.93556 18.389 9.37512 18.0648V17.2589C10.8394 17.8986 12.2737 18.5943 13.6754 19.3433C14.5036 19.7858 15.498 19.7858 16.3262 19.3433Z" fill="#0D0D0D"/>
<path d="M5.5779 24.3294C6.10182 23.8054 6.5189 23.2153 6.82858 22.5858C7.39445 22.8529 7.95548 23.1286 8.5115 23.4127C8.11331 24.2225 7.57717 24.9817 6.90373 25.6552C6.53761 26.0213 5.94402 26.0213 5.5779 25.6552C5.21178 25.2891 5.21178 24.6955 5.5779 24.3294Z" fill="#0D0D0D"/>
</g>
</g>
</svg>
